<svg preserveAspectRatio="none" width="100%" height="100%" overflow="visible" style="display: block;" viewBox="0 0 21 20" fill="none" xmlns="http://www.w3.org/2000/svg">
<path id="Vector" d="M9.8427 19.637C9.59551 19.3949 9.46607 19.0869 9.45438 18.7129C9.4436 18.3388 9.5618 18.0308 9.80899 17.7888L16.4157 11.3201H1.34831C0.966292 11.3201 0.645843 11.1934 0.386967 10.9399C0.128989 10.6873 0 10.374 0 10C0 9.62596 0.128989 9.31221 0.386967 9.05875C0.645843 8.80616 0.966292 8.67987 1.34831 8.67987H16.4157L9.80899 2.21122C9.5618 1.9692 9.4436 1.66117 9.45438 1.28713C9.46607 0.913091 9.59551 0.60506 9.8427 0.363036C10.0899 0.121012 10.4045 0 10.7865 0C11.1685 0 11.4831 0.121012 11.7303 0.363036L20.6292 9.07591C20.764 9.18592 20.8598 9.32321 20.9164 9.48779C20.9721 9.65325 21 9.82398 21 10C21 10.176 20.9721 10.341 20.9164 10.495C20.8598 10.6491 20.764 10.7921 20.6292 10.9241L11.7303 19.637C11.4831 19.879 11.1685 20 10.7865 20C10.4045 20 10.0899 19.879 9.8427 19.637Z" fill="var(--fill-0, white)"/>
</svg>
