<svg preserveAspectRatio="none" width="100%" height="100%" overflow="visible" style="display: block;" viewBox="0 0 107.069 44" fill="none" xmlns="http://www.w3.org/2000/svg">
<g id="g3">
<path id="path5" d="M99.0614 30.8193C98.775 30.8193 98.5777 30.6208 98.5777 30.3352V16.1491H93.7586C93.4721 16.1491 93.2745 15.9514 93.2745 15.6655V13.7087C93.2745 13.4222 93.4722 13.2239 93.7586 13.2239H106.586C106.872 13.2239 107.069 13.4224 107.069 13.7087V15.6654C107.069 15.9511 106.872 16.1491 106.586 16.1491H101.767V30.335C101.767 30.6208 101.569 30.8193 101.284 30.8193H99.0614ZM62.1464 23.7369L59.6167 16.4795L57.0644 23.7369H62.1464ZM67.7571 30.2461C67.8677 30.5328 67.6913 30.8193 67.3832 30.8193H65.0954C64.7652 30.8193 64.567 30.6658 64.4566 30.3565L63.159 26.6188H56.053L54.7532 30.3565C54.644 30.666 54.4453 30.8193 54.1159 30.8193H51.9604C51.674 30.8193 51.4756 30.5327 51.5858 30.2461L57.5482 13.6647C57.6585 13.3558 57.8565 13.2247 58.1858 13.2247H61.1342C61.4645 13.2247 61.6846 13.3559 61.7945 13.6647L67.7571 30.2461ZM84.8477 28.4436C86.2552 28.4436 87.2017 27.7629 87.972 26.5967L84.4083 22.7693C83.0435 23.5397 82.163 24.3085 82.163 25.8485C82.1632 27.3663 83.3947 28.4436 84.8477 28.4436ZM85.8376 15.5552C84.6939 15.5552 84.0338 16.2817 84.0338 17.2492C84.0338 17.9969 84.429 18.6568 85.3315 19.6248C86.8935 18.7224 87.5539 18.1729 87.5539 17.2054C87.5539 16.303 86.9821 15.5552 85.8376 15.5552ZM95.5853 30.2034C95.871 30.5116 95.6953 30.8193 95.3423 30.8193H92.5481C92.1742 30.8193 91.9762 30.7309 91.7343 30.4447L90.0622 28.598C88.9403 30.0937 87.3768 31.2151 84.7812 31.2151C81.5691 31.2151 79.0381 29.2798 79.0381 25.9594C79.0381 23.4073 80.403 22.0434 82.4715 20.9C81.4585 19.7344 80.9974 18.5027 80.9974 17.4255C80.9974 14.6976 82.9114 12.8284 85.7932 12.8284C88.7415 12.8284 90.546 14.5665 90.546 17.1393C90.546 19.3386 88.9622 20.5692 87.2895 21.4936L89.7541 24.1557L91.14 21.7355C91.3158 21.45 91.514 21.3397 91.8655 21.3397H93.9993C94.3518 21.3397 94.5499 21.5822 94.3305 21.9559L91.8658 26.178L95.5853 30.2034ZM73.6279 30.8193C73.9139 30.8193 74.1129 30.6208 74.1129 30.3352V16.1491H78.9306C79.2166 16.1491 79.4144 15.9514 79.4144 15.6655V13.7087C79.4144 13.4222 79.2166 13.2239 78.9306 13.2239H66.103C65.8166 13.2239 65.619 13.4224 65.619 13.7087V15.6654C65.619 15.9511 65.8167 16.1491 66.103 16.1491H70.9207V30.335C70.9207 30.6208 71.1194 30.8193 71.4051 30.8193H73.6279Z" fill="var(--fill-0, black)"/>
<path id="path9" d="M8.51264 39.3761C12.244 42.2645 16.9275 44 22.0088 44C27.5695 44 32.6388 41.9355 36.5077 38.5466C36.5546 38.5052 36.5315 38.4778 36.4852 38.5052C34.7491 39.6646 29.8011 42.1956 22.009 42.1956C15.2374 42.1956 10.958 40.6847 8.54133 39.3358C8.49509 39.313 8.47796 39.3477 8.51264 39.3761ZM23.5028 40.5007C28.9188 40.5007 34.8704 39.0243 38.4299 36.1018C39.404 35.3055 40.3318 34.2457 41.1628 32.8214C41.6412 32.0019 42.109 31.0282 42.4901 30.0712C42.507 30.0245 42.4782 30.0018 42.4431 30.0543C39.133 34.9255 29.5476 37.9638 19.6501 37.9638C12.6543 37.9638 5.12683 35.7267 2.17978 31.455C2.15077 31.4155 2.12177 31.4324 2.13943 31.4778C4.88481 37.313 13.2137 40.5007 23.5028 40.5007ZM17.5852 30.8203C6.32087 30.8203 1.0095 25.574 0.0460276 21.9938C0.0341461 21.942 0 21.9534 0 21.9999C0 23.2052 0.120635 24.7606 0.328188 25.7931C0.4272 26.2956 0.836204 27.0843 1.43585 27.7129C4.16346 30.5561 10.9638 34.5399 22.7408 34.5399C38.7866 34.5399 42.4554 29.1949 43.2046 27.4372C43.7403 26.1801 44.0179 23.9084 44.0179 22.0001C44.0179 21.5383 44.0063 21.1694 43.9889 20.8073C43.9889 20.7485 43.9549 20.7437 43.9431 20.801C43.1412 25.102 29.432 30.8203 17.5852 30.8203ZM2.12177 12.5619C1.47631 13.8429 0.760847 16.0039 0.548157 17.1224C0.454924 17.6016 0.494636 17.8318 0.66269 18.1894C2.0128 21.0539 8.8419 25.6372 24.7715 25.6372C34.4898 25.6372 42.0392 23.2497 43.2622 18.8928C43.4874 18.0907 43.4995 17.2439 43.2102 16.1028C42.8869 14.8278 42.2815 13.3409 41.7691 12.2968C41.7522 12.2627 41.7223 12.2678 41.7284 12.308C41.9187 18.0225 25.9828 21.7055 17.9422 21.7055C9.23282 21.7055 1.96677 18.2354 1.96677 13.8538C1.96677 13.4328 2.0539 13.0117 2.16265 12.5735C2.17357 12.5334 2.13932 12.5268 2.12177 12.5619ZM36.5433 5.54569C36.6358 5.69063 36.682 5.8453 36.682 6.0535C36.682 8.49789 29.2008 12.8221 17.2917 12.8221C8.54133 12.8221 6.90307 9.57601 6.90307 7.51161C6.90307 6.77367 7.18609 6.0186 7.80939 5.25176C7.84342 5.20616 7.81452 5.1886 7.77524 5.22254C6.63846 6.18591 5.59396 7.26991 4.67769 8.44008C4.23989 8.99349 3.96811 9.48374 3.96811 9.77746C3.96811 14.0556 14.6953 17.1574 24.7256 17.1574C35.413 17.1574 40.1827 13.6685 40.1827 10.6024C40.1827 9.50664 39.7562 8.86696 38.665 7.62679C37.9567 6.82002 37.2867 6.16311 36.5776 5.51647C36.5433 5.48821 36.5195 5.51123 36.5433 5.54569ZM33.2669 3.10184C29.9686 1.12479 26.1383 0 22.009 0C17.8509 0 13.9053 1.16407 10.595 3.19346C9.60211 3.80456 9.04325 4.29428 9.04325 4.92378C9.04325 6.77945 13.38 8.7747 21.074 8.7747C28.6881 8.7747 34.5938 6.58924 34.5938 4.48556C34.5938 3.98343 34.1549 3.63212 33.2669 3.10184Z" fill="var(--fill-0, #00A8E0)"/>
</g>
</svg>
